<?xml version="1.0" encoding="UTF-8"?>
<svg width="214px" height="75px" viewBox="0 0 214 75" version="1.1" xmlns="http://www.w3.org/2000/svg" xmlns:xlink="http://www.w3.org/1999/xlink">
    <!-- Generator: Sketch 62 (91390) - https://sketch.com -->
    <title>v</title>
    <desc>Created with Sketch.</desc>
    <g id="v" stroke="none" stroke-width="1" fill="none" fill-rule="evenodd">
        <g id="Logo-Color" transform="translate(6.000000, 24.000000)">
            <g>
                <path d="M27.5859031,2.13301322 C27.5859031,1.00265421 26.6695661,0.0863171806 25.539207,0.0863171806 L2.04669604,0.0863171806 C0.917756802,0.0897374918 0.00342031118,1.00407398 2.52915652e-15,2.13301322 L2.52915652e-15,25.6308634 C0.00390570028,26.7596007 0.91795878,27.6736538 2.04669604,27.6775595 L25.539207,27.6775595 C26.6695661,27.6775595 27.5859031,26.7612224 27.5859031,25.6308634 L27.5859031,2.13301322 Z" id="Path" fill="#338EC7" fill-rule="nonzero"></path>
                <path d="M23.3020793,8.56853744 C22.6640441,7.10114537 21.4333568,6.14809692 19.8315947,5.88113656 C17.9459648,5.56790308 15.8877004,6.28513656 14.5884934,7.70981498 C14.4407753,7.87266079 14.2983965,8.04084581 14.1569075,8.2099207 C14.2805991,7.36810573 14.3936123,6.60815859 14.4861586,5.96211454 C14.5377709,5.6061674 13.7742643,5.82774449 13.6167577,5.87312775 C13.3359913,5.94931175 13.0646629,6.05676854 12.8078678,6.19348018 C12.7135419,6.24598238 12.402978,6.40259912 12.3816211,6.54230837 C12.1983084,7.81214978 11.9242291,9.6461674 11.6279031,11.6332423 C11.187292,12.2043898 10.6749641,12.7164186 10.1035595,13.156696 C9.46997357,13.6318855 8.67977093,13.8196476 8.00436123,13.6603612 C7.40814978,13.5233216 6.93029075,13.1317797 6.62506608,12.5346784 C5.8054978,10.928467 6.26911894,8.84528634 6.71405286,6.83151542 C6.77990308,6.53429956 6.83863436,6.24954185 6.89825551,5.96389427 C7.00414978,5.52518943 7.10648458,5.0473304 7.20259031,4.52497797 C7.26577093,4.16903084 6.49069604,4.39060793 6.33318943,4.43599119 C6.05227049,4.51131796 5.78087989,4.61850083 5.52429956,4.75545374 C5.42997357,4.80795595 5.07135683,5.05088987 5.0526696,5.19059912 L5.0526696,5.19771806 C5.0526696,5.19771806 4.87914537,5.99148018 4.78570925,6.40704846 C4.28827313,8.65218502 3.72498678,11.197207 4.86846696,13.4370044 C5.43976211,14.5537885 6.39459031,15.3226344 7.55853744,15.5913744 C8.76786784,15.8743524 10.066185,15.5984934 11.1527137,14.8394361 C10.5075595,19.1259295 9.90155947,23.1677093 9.90155947,23.1677093 C9.90155947,23.1677093 10.079533,23.957022 10.2788634,24.5995066 L11.1927577,24.7160793 C11.5424758,24.1438943 11.9153304,23.4239912 11.9153304,23.4239912 C11.9153304,23.4239912 12.7713833,17.6567577 13.5491278,12.38963 C13.8499031,11.9891894 14.1382203,11.58163 14.4211982,11.1767401 C14.961348,10.4070044 15.473022,9.68087225 16.0541057,9.04105727 C16.90037,8.11381498 18.2921233,7.6234978 19.5139119,7.82994714 C20.1617357,7.93673128 21.0266872,8.28911894 21.492978,9.35518062 C21.9085463,10.3091189 21.8489251,11.5798502 21.3150044,12.8461322 C20.7508282,14.1969515 19.7408282,15.3261938 18.7415066,15.7159559 C18.0296123,15.991815 17.3079295,15.944652 16.8549868,15.5922643 C16.4162819,15.2505551 16.1991542,14.5858238 16.2187313,13.6977357 C16.2712335,13.3471278 16.3557709,12.7856211 16.4856916,11.8779559 C16.5364141,11.5220088 15.7737974,11.7444758 15.6162907,11.7889692 C15.3354603,11.8632419 15.064505,11.9707876 14.8091806,12.1093216 C14.7130749,12.1600441 14.4007313,12.3166608 14.3811542,12.45637 C14.3615771,12.5960793 14.0643612,14.7486696 13.87037,16.2730132 C13.7813833,16.9982555 14.7807048,17.1584317 15.4009427,16.9439736 C15.480141,17.0187225 15.5593392,17.0908018 15.6385374,17.1522026 C16.267585,17.631064 17.0388891,17.8854502 17.8293921,17.8747753 C18.3866186,17.8714356 18.938314,17.7639939 19.4560705,17.5579824 C20.9554978,16.9733392 22.3650485,15.4650132 23.1383436,13.607859 C23.8813833,11.8281233 23.9392247,10.0350396 23.3020793,8.56764758" id="Path" fill="#FFFFFF" fill-rule="nonzero"></path>
                <path d="M10.2735242,24.6039559 C10.4052247,25.0355419 10.5404846,25.4003877 10.6348106,25.4128458 C10.7291366,25.425304 11.1883084,24.7205286 11.1883084,24.7205286 C10.9202228,24.5358961 10.5793463,24.4924576 10.2735242,24.6039559" id="Path" fill="#2C3E50" fill-rule="nonzero"></path>
                <path d="M50.7936564,22.1176652 L47.3578767,22.1176652 L47.3578767,19.9099031 L47.2973656,19.9099031 C46.8553884,20.7196597 46.1896621,21.385077 45.3797004,21.8266784 C44.5937128,22.289902 43.6998046,22.5384655 42.7875154,22.5474714 C40.7016652,22.5474714 39.1936358,22.0310514 38.2634273,20.9982115 C37.3332188,19.9653715 36.866928,18.4060264 36.8645551,16.3201762 L36.8645551,6.2593304 L40.3608458,6.2593304 L40.3608458,15.9829163 C40.3608458,17.3734831 40.6278062,18.3550073 41.1617269,18.927489 C41.6956476,19.4999706 42.4422467,19.7862115 43.4015242,19.7862115 C44.1371483,19.7862115 44.7505639,19.6737915 45.2417709,19.4489515 C45.7054873,19.2445533 46.1152577,18.9350167 46.4386432,18.5448458 C46.7560181,18.1434372 46.9811421,17.6770871 47.0980352,17.1788987 C47.2343865,16.6167091 47.3013289,16.0399286 47.2973656,15.4614537 L47.2973656,6.2593304 L50.7936564,6.2593304 L50.7936564,22.1176652 Z" id="Path" fill="#2C3E50" fill-rule="nonzero"></path>
                <path d="M53.4321145,0.216237885 L56.9284053,0.216237885 L56.9284053,8.31403524 L56.9898062,8.31403524 C57.2353135,7.92583763 57.5349558,7.5746568 57.879674,7.27111013 C58.2292406,6.96361451 58.6157492,6.70086034 59.0302731,6.4889163 C59.4491519,6.27440124 59.8917797,6.10983449 60.3490573,5.99859912 C60.7956711,5.88781866 61.2539691,5.83105425 61.7141145,5.82952423 C62.9599295,5.82952423 64.0488311,6.04932159 64.9808194,6.4889163 C65.8810102,6.90622488 66.6727677,7.5256229 67.2944758,8.29890749 C67.9232903,9.09615647 68.3919597,10.0075086 68.6746608,10.9827489 C68.9875948,12.0486313 69.1425964,13.1546289 69.1347225,14.2654714 C69.1373155,15.311904 68.9984247,16.3538839 68.7218238,17.3631013 C68.4684739,18.3172336 68.0419686,19.2166952 67.4635507,20.0166872 C66.900233,20.7839491 66.1699597,21.4132012 65.3278678,21.8569339 C64.4688488,22.316699 63.4564758,22.5468781 62.2907489,22.5474714 C61.7524176,22.5466171 61.2147051,22.510948 60.680978,22.4406872 C60.1505057,22.3700994 59.6316774,22.2297705 59.1379471,22.0233392 C58.6561848,21.8232043 58.2064467,21.5533615 57.8031454,21.2224581 C57.383291,20.8685054 57.0435519,20.4292713 56.8064934,19.9339295 L56.7450925,19.9339295 L56.7450925,22.1114361 L53.4321145,22.1114361 L53.4321145,0.216237885 Z M65.6402328,14.2040705 C65.6418502,13.4995858 65.5490715,12.7980587 65.3643524,12.1182203 C65.1970773,11.4760761 64.9178287,10.8684769 64.5394449,10.3233568 C64.1778359,9.80725489 63.7065085,9.37755988 63.1592599,9.0650837 C62.5778252,8.73951725 61.9203223,8.57429699 61.2540529,8.5863348 C59.781025,8.5863348 58.6716564,9.09771219 57.9259471,10.120467 C57.1802379,11.1432217 56.8070866,12.5044229 56.8064934,14.2040705 C56.7997916,14.9555368 56.897727,15.7042781 57.0974802,16.4287401 C57.2693168,17.0686286 57.5663274,17.668094 57.9713304,18.1924581 C58.3502618,18.6730649 58.8259357,19.068702 59.367533,19.3537357 C59.9514281,19.6499602 60.5994783,19.7972999 61.2540529,19.782652 C62.0513744,19.782652 62.7261909,19.6192129 63.2785022,19.2923348 C63.8217534,18.9739651 64.2878967,18.5394247 64.6435595,18.0198238 C65.009333,17.4803357 65.2696092,16.8764465 65.4106256,16.2400881 C65.5641582,15.5711193 65.6411808,14.8868714 65.6402328,14.200511" id="Shape" fill="#2C3E50" fill-rule="nonzero"></path>
                <path d="M73.6766079,15.0939383 C73.6750814,15.6968092 73.7629472,16.2965752 73.9373392,16.873674 C74.0978014,17.4202474 74.3635104,17.9302031 74.719533,18.3748811 C75.077028,18.8118578 75.5279896,19.1630787 76.039207,19.4026784 C76.5731278,19.6583671 77.2070103,19.7859148 77.9408546,19.7853216 C78.9636094,19.7853216 79.7867372,19.5658209 80.4102379,19.1268194 C81.0337386,18.6878179 81.497953,18.0284258 81.8028811,17.1486432 L85.115859,17.1486432 C84.7871758,18.759393 83.8663295,20.1882924 82.5352423,21.1530485 C81.8880771,21.6200134 81.1657513,21.9727492 80.3995595,22.1959736 C79.5981295,22.4341149 78.7662365,22.5540274 77.9301762,22.551948 C76.6843612,22.551948 75.5800352,22.3472511 74.6171982,21.9379119 C73.6922151,21.5490671 72.8642863,20.9611617 72.1923084,20.2160176 C71.5119455,19.4519177 70.9998697,18.5532838 70.6893216,17.5784493 C70.3418634,16.4878326 70.171223,15.348628 70.1838767,14.2040705 C70.1777291,13.1135842 70.3583109,12.0300935 70.7177974,11.0005463 C71.055925,10.0217481 71.5764872,9.1158974 72.2519295,8.33094273 C72.9187631,7.56169892 73.738544,6.939817 74.659022,6.50493392 C75.5993157,6.05584728 76.6627078,5.83100734 77.8491982,5.8304141 C79.0950132,5.8304141 80.2147636,6.09114537 81.2084493,6.61260793 C82.1741774,7.11234789 83.017439,7.81947216 83.6778326,8.6833304 C84.343034,9.56663812 84.826919,10.5728165 85.1016211,11.6439207 C85.3986217,12.7688763 85.476565,13.9404429 85.331207,15.0948282 L73.6766079,15.0939383 Z M81.836696,12.7927401 C81.7955424,12.2468123 81.6756525,11.7097055 81.4807489,11.1980969 C81.2983902,10.7075801 81.026861,10.2550314 80.6798678,9.86329515 C80.3368471,9.47962145 79.9220951,9.16674364 79.4589692,8.94228194 C78.9566608,8.70117033 78.4054437,8.57935439 77.8483084,8.5863348 C77.2751163,8.57866876 76.7064103,8.68829152 76.1771366,8.90846696 C75.6908752,9.11309128 75.2521806,9.41605719 74.8886079,9.7983348 C74.5241874,10.187822 74.2332589,10.6400424 74.0298855,11.1331366 C73.810712,11.6589719 73.6900583,12.2206146 73.6739383,12.7900705 L81.836696,12.7927401 Z" id="Shape" fill="#2C3E50" fill-rule="nonzero"></path>
                <path d="M86.8671189,6.2593304 L90.1498414,6.2593304 L90.1498414,9.32670485 L90.2112423,9.32670485 C90.3248294,8.87165698 90.5281342,8.44386986 90.8092335,8.06843172 C91.1153292,7.64900086 91.4762706,7.27249656 91.8824141,6.94897797 C92.3044909,6.61022674 92.7747795,6.33639163 93.2777269,6.13652863 C93.7749593,5.93472432 94.3063815,5.83049425 94.8430044,5.82952423 C95.1245632,5.82419407 95.4061999,5.83459205 95.6865991,5.8606696 L96.1617885,5.92207048 L96.1617885,9.29822907 C95.916185,9.25818502 95.6652423,9.22170044 95.4098502,9.19144493 C95.1606694,9.1608193 94.9098575,9.14536643 94.6588018,9.14517181 C94.0823812,9.14263767 93.5121495,9.26402814 92.9867401,9.50111894 C92.4591778,9.74184372 91.9926125,10.0983069 91.6216828,10.5440441 C91.2098668,11.0460543 90.8975793,11.6220043 90.7015595,12.241022 C90.4647374,12.9950354 90.3508602,13.7822604 90.3642996,14.5724758 L90.3642996,22.1176652 L86.8671189,22.1176652 L86.8671189,6.2593304 Z" id="Path" fill="#2C3E50" fill-rule="nonzero"></path>
                <path d="M98.9524141,9.97096916 L99.0414009,9.97096916 C99.1936828,9.51855624 99.399517,9.08597587 99.6545198,8.68244053 C99.9604305,8.18991159 100.343509,7.74974707 100.789101,7.37878414 C101.907263,6.448651 103.323338,5.95292988 104.777489,5.9825815 C105.98415,5.9825815 107.032117,6.20771806 107.921392,6.65799119 C108.784843,7.08640047 109.539973,7.70492601 110.130044,8.46709251 C110.728865,9.25565398 111.171914,10.1511146 111.43548,11.1055507 C111.725575,12.1336253 111.870249,13.1972637 111.865286,14.2654714 C111.876599,15.3844596 111.731634,16.4995483 111.43459,17.5784493 C111.17735,18.521529 110.732769,19.4031258 110.127374,20.1706344 C109.533293,20.9034662 108.775182,21.4863006 107.914273,21.8720617 C107.024405,22.2814009 105.973768,22.4860705 104.762361,22.4860705 C103.450103,22.4860705 102.281706,22.1998297 101.257172,21.627348 C100.232637,21.0548664 99.4842584,20.1243612 99.0120352,18.8358326 L98.9524141,18.8358326 L98.9524141,27.7620969 L97.8205022,27.7620969 L97.8205022,6.35098678 L98.9550837,6.35098678 L98.9524141,9.97096916 Z M104.761471,21.4742907 C105.786599,21.4742907 106.673501,21.2797063 107.422176,20.8905374 C108.150257,20.5194899 108.782089,19.9842302 109.267762,19.3270396 C109.765157,18.6382762 110.130266,17.8631005 110.344502,17.0409692 C110.810283,15.262196 110.815489,13.394117 110.35963,11.6127753 C110.149997,10.7803473 109.795788,9.99120769 109.313145,9.28132159 C108.840057,8.59481564 108.213676,8.02784345 107.483577,7.62527753 C106.734308,7.2064464 105.82694,6.99673421 104.761471,6.99614097 C103.716767,6.99614097 102.825119,7.20051395 102.086529,7.60925991 C101.366714,8.00173547 100.749873,8.55881296 100.286326,9.23504846 C99.8133577,9.93802416 99.4745473,10.7224473 99.2870044,11.5487048 C99.0799775,12.4387754 98.9769534,13.3498664 98.9799264,14.2636916 C98.9769391,15.175835 99.0693963,16.0857918 99.255859,16.9786784 C99.4204749,17.7977838 99.7387223,18.5783052 100.19378,19.2789868 C100.643696,19.951786 101.25575,20.5004922 101.973515,20.8745198 C102.722784,21.2719941 103.65062,21.4713245 104.757022,21.472511" id="Shape" fill="#2C3E50" fill-rule="nonzero"></path>
                <path d="M125.851339,22.1176652 L124.685612,22.1176652 L124.685612,18.7432863 L124.624211,18.7432863 C124.429808,19.3181182 124.133835,19.8534022 123.750361,20.3236916 C122.985913,21.25391 121.951383,21.9236954 120.789771,22.240467 C120.200303,22.4037112 119.591434,22.4863306 118.97978,22.4860711 C118.059656,22.4860711 117.277463,22.3736505 116.633198,22.1488106 C116.052719,21.9602615 115.51572,21.6577271 115.053683,21.2589427 C114.657396,20.9068991 114.329738,20.4845039 114.087286,20.0131278 C113.858799,19.5720023 113.688881,19.1029341 113.581841,18.617815 C113.481521,18.1689 113.419895,17.7122068 113.397639,17.2527577 C113.376282,16.813163 113.3659,16.42963 113.366469,16.1021586 L113.366469,6.35098678 L114.53222,6.35098678 L114.53222,16.3175066 C114.536011,16.8146689 114.565713,17.3112956 114.621207,17.8053656 C114.683948,18.3990613 114.865526,18.9740591 115.155128,19.4961145 C115.477177,20.0649295 115.935942,20.5444916 116.48993,20.8914273 C117.083175,21.2811894 117.921727,21.4757739 119.005586,21.4751806 C119.824302,21.487749 120.635759,21.32005 121.382423,20.9839736 C122.075824,20.6685259 122.690421,20.2028664 123.181736,19.620696 C123.690014,19.0067242 124.070875,18.2976388 124.302079,17.5348458 C124.565223,16.6752137 124.69458,15.7802213 124.685612,14.8812599 L124.685612,6.35098678 L125.851339,6.35098678 L125.851339,22.1176652 Z" id="Path" fill="#2C3E50" fill-rule="nonzero"></path>
                <path d="M128.342969,0.216237885 L129.478441,0.216237885 L129.478441,9.69422026 L129.538952,9.69422026 C129.752118,9.10206065 130.075836,8.55578644 130.49289,8.08444934 C130.901212,7.62520224 131.378199,7.23196585 131.90689,6.91872247 C132.443134,6.60031394 133.023313,6.36254549 133.628784,6.21305727 C134.25256,6.0581585 134.893053,5.98074943 135.535771,5.9825815 C136.704464,5.9825815 137.712981,6.1872511 138.561322,6.59659031 C139.392032,6.99122706 140.122286,7.56934464 140.697004,8.28733921 C141.283795,9.02822402 141.717821,9.87812926 141.973965,10.7878678 C142.257626,11.7908177 142.397249,12.8290038 142.388643,13.8712599 C142.388643,15.7524405 142.132361,17.2604699 141.619797,18.395348 C141.107233,19.5302261 140.492335,20.3993304 139.775101,21.0026608 C139.057868,21.6059912 138.309786,22.004652 137.530855,22.1986432 C136.751924,22.3926344 136.085709,22.4899266 135.532211,22.4905198 C134.485727,22.4905198 133.598825,22.3270808 132.871507,22.0002026 C132.213315,21.7172768 131.605823,21.3286145 131.073084,20.8496035 C130.651561,20.4710388 130.288945,20.0316394 129.997233,19.5459471 C129.811723,19.2451764 129.656994,18.9264767 129.535392,18.5946784 L129.475771,18.5946784 L129.475771,22.1221145 L128.342969,22.1221145 L128.342969,0.216237885 Z M135.536661,21.4742907 C136.582552,21.4742907 137.464411,21.2491542 138.182238,20.7988811 C138.894462,20.3536352 139.494365,19.7500783 139.935278,19.035163 C140.396994,18.2778137 140.727904,17.4481323 140.914132,16.5809075 C141.117374,15.6904733 141.220644,14.7801443 141.222046,13.8668106 C141.223792,13.005358 141.103961,12.1479678 140.866079,11.3200088 C140.643453,10.5297479 140.27857,9.78671352 139.789339,9.12737445 C139.313165,8.4884508 138.704548,7.95997015 138.005154,7.57811454 C137.298006,7.18953891 136.472802,6.9952511 135.529542,6.9952511 C134.504414,6.9952511 133.61247,7.16907195 132.853709,7.51671366 C132.12354,7.84266523 131.480777,8.33662888 130.977868,8.95829956 C130.469307,9.60430255 130.093132,10.3442543 129.870872,11.1358062 C129.617747,12.0237842 129.493381,12.9434959 129.501577,13.8668106 C129.500492,14.8175719 129.614028,15.7649971 129.839727,16.6885815 C130.043247,17.5591122 130.402937,18.3855236 130.901339,19.1277093 C131.38127,19.831449 132.018286,20.4139336 132.762053,20.8291366 C133.52022,21.2592394 134.442717,21.4742907 135.529542,21.4742907" id="Shape" fill="#2C3E50" fill-rule="nonzero"></path>
                <rect id="Rectangle" fill="#2C3E50" fill-rule="nonzero" x="144.167489" y="0.216237885" width="1.16572687" height="21.9014273"></rect>
                <path d="M148.098035,0.216237885 L149.262872,0.216237885 L149.262872,3.37526872 L148.098035,3.37526872 L148.098035,0.216237885 Z M148.098035,6.35098678 L149.262872,6.35098678 L149.262872,22.1176652 L148.098035,22.1176652 L148.098035,6.35098678 Z" id="Shape" fill="#2C3E50" fill-rule="nonzero"></path>
                <path d="M152.296432,16.8727841 C152.321713,17.5489703 152.48876,18.2123042 152.786749,18.819815 C153.343853,19.9377791 154.328034,20.7840207 155.516863,21.1672863 C156.160644,21.3766831 156.834106,21.4803619 157.511057,21.4742907 C158.06082,21.4710458 158.609479,21.4246299 159.151974,21.3354714 C159.716295,21.2494651 160.264399,21.0787637 160.777762,20.8291366 C161.270107,20.5928361 161.697648,20.2404204 162.023577,19.8022291 C162.351048,19.3626344 162.514784,18.8052805 162.514784,18.1301674 C162.514784,17.250978 162.247824,16.5865433 161.713903,16.1368634 C161.179982,15.6871836 160.510209,15.3395419 159.704581,15.0939383 C158.849308,14.8371303 157.978012,14.6370682 157.096379,14.4950573 C156.206519,14.3523794 155.333096,14.1213548 154.489066,13.8054097 C153.728937,13.5296969 153.041942,13.0837739 152.480634,12.5017533 C151.946714,11.9393568 151.679753,11.1162291 151.679753,10.03237 C151.679753,9.2552188 151.853278,8.60591189 152.200326,8.08444934 C152.54003,7.56908413 152.997587,7.14203116 153.535128,6.83863436 C154.103974,6.52188154 154.720304,6.29920957 155.360247,6.17924229 C156.026909,6.04657691 156.704962,5.97951679 157.384696,5.97902203 C158.160063,5.9739802 158.932959,6.06696682 159.685004,6.25577093 C160.359047,6.41969388 160.991343,6.72280832 161.541269,7.14563877 C162.068599,7.56202982 162.489235,8.09796741 162.768396,8.70913656 C163.065019,9.34390896 163.21333,10.110975 163.21333,11.0103348 L162.051163,11.0103348 C162.051163,10.2948811 161.932514,9.68116887 161.695216,9.16919824 C161.477755,8.6801356 161.141224,8.25335265 160.716361,7.9278326 C160.271216,7.59776102 159.765757,7.35803068 159.228502,7.2221674 C158.627894,7.06473742 158.009138,6.98724338 157.388256,6.99169163 C156.84772,6.99220554 156.308441,7.04374994 155.777595,7.14563877 C155.266164,7.23634049 154.773688,7.41263283 154.320881,7.66710132 C153.90066,7.90243738 153.538035,8.22828266 153.259269,8.62103965 C152.97517,9.03574512 152.829978,9.5298971 152.84459,10.03237 C152.84459,10.6659559 152.997944,11.1770367 153.304652,11.5656123 C153.630324,11.9691732 154.046855,12.289957 154.520211,12.5017533 C155.061911,12.750598 155.628735,12.9406331 156.21096,13.0685991 C156.834461,13.2121645 157.463301,13.3554332 158.09748,13.4984053 C158.874631,13.6419706 159.60551,13.8107489 160.290115,14.0047401 C160.922033,14.1757534 161.522767,14.4460837 162.06985,14.8056211 C162.564639,15.1365078 162.970224,15.5842711 163.250705,16.1092775 C163.537242,16.6431982 163.680511,17.3180147 163.680511,18.1337269 C163.680511,18.9921527 163.486223,19.6978179 163.097648,20.2507225 C162.711168,20.7972581 162.207763,21.2508092 161.624026,21.5784053 C161.009193,21.9235991 160.340347,22.1621932 159.64585,22.2840705 C158.941432,22.4148457 158.226619,22.4815616 157.510167,22.4834009 C156.663583,22.4899415 155.820771,22.3699682 155.009639,22.1274537 C154.274247,21.9093463 153.590913,21.5439126 153.001207,21.0533833 C152.427014,20.5718934 151.966089,19.9696826 151.651278,19.2896652 C151.323806,18.5943818 151.149985,17.7866784 151.129815,16.8665551 L152.296432,16.8727841 Z" id="Path" fill="#2C3E50" fill-rule="nonzero"></path>
                <path d="M166.437322,0.216237885 L166.437322,9.72536564 L166.498722,9.72536564 C166.692582,9.15056456 166.988612,8.61547958 167.372573,8.14585022 C168.137289,7.21574542 169.171679,6.54573924 170.333163,6.22818502 C170.922708,6.06531507 171.531526,5.98270258 172.143154,5.9825815 C173.063278,5.9825815 173.845175,6.09529809 174.488846,6.32073128 C175.069448,6.5096109 175.606676,6.81210391 176.069251,7.21059912 C176.465283,7.56288131 176.792902,7.98522564 177.035648,8.4564141 C177.263506,8.89790542 177.433679,9.36685112 177.541982,9.85172687 C177.64072,10.301196 177.702034,10.7580757 177.725295,11.217674 C177.745465,11.6572687 177.755847,12.0405051 177.756441,12.3673833 L177.756441,22.1176652 L176.590714,22.1176652 L176.590714,12.1458062 C176.590714,11.7572305 176.561051,11.2666167 176.501727,10.6739648 C176.440459,10.0760272 176.258841,9.49666792 175.967806,8.97075771 C175.641495,8.40027669 175.176592,7.92129482 174.616097,7.57811454 C174.012173,7.18953891 173.178664,6.9952511 172.115568,6.9952511 C171.215615,6.9952511 170.418294,7.15898678 169.723604,7.48645815 C169.037074,7.80650363 168.428984,8.27305005 167.942088,8.85329515 C167.434246,9.46742196 167.053703,10.1764773 166.822634,10.9391454 C166.559124,11.7983902 166.429758,12.6931467 166.439101,13.5918414 L166.439101,22.1194449 L165.272485,22.1194449 L165.272485,0.216237885 L166.437322,0.216237885 Z" id="Path" fill="#2C3E50" fill-rule="nonzero"></path>
                <path d="M180.394009,14.3882731 L180.394009,14.5724758 C180.389953,15.4648278 180.514326,16.3531202 180.763304,17.2100441 C180.988518,18.007074 181.358652,18.7557888 181.855172,19.418696 C182.336571,20.0527007 182.957804,20.5670446 183.670502,20.9216828 C184.397821,21.2900881 185.243492,21.4742907 186.207515,21.4742907 C187.786141,21.4742907 189.036999,21.0590191 189.960088,20.2284758 C190.883178,19.3979325 191.51884,18.24763 191.867075,16.7775683 L193.036361,16.7775683 C192.68872,18.6166285 191.937078,20.0276623 190.781436,21.0106696 C189.625794,21.9936769 188.097001,22.4845874 186.195057,22.483403 C185.029924,22.483403 184.012805,22.2736887 183.1437,21.8542643 C182.2973,21.4534552 181.552571,20.8663115 180.965304,20.1368194 C180.36324,19.3736665 179.919985,18.4977458 179.661648,17.560652 C179.368729,16.518296 179.224334,15.4398267 179.232731,14.3571278 C179.228649,13.2829605 179.378483,12.2137487 179.677665,11.1820793 C179.95063,10.2161391 180.403494,9.31041195 181.012467,8.51247577 C181.609551,7.74280831 182.369182,7.11444142 183.237137,6.67222907 C184.127004,6.21246402 185.174972,5.98228488 186.38104,5.98169163 C187.485069,5.98169163 188.461551,6.18636123 189.310485,6.59570044 C190.138122,6.98688103 190.867818,7.5581723 191.446167,8.26776211 C192.028052,8.99727605 192.467298,9.82988032 192.740925,10.7220176 C193.043014,11.6899576 193.19311,12.6989043 193.185859,13.7128634 C193.185859,13.8160881 193.18052,13.9335507 193.170731,14.0688106 C193.160943,14.2040705 193.154714,14.3099648 193.154714,14.3918326 L180.394009,14.3882731 Z M191.989877,13.3756035 C191.953698,12.5475043 191.808894,11.7277455 191.559181,10.9373656 C191.32811,10.1986329 190.957455,9.51109262 190.467313,8.91202643 C189.985991,8.33044651 189.389013,7.85528795 188.714273,7.51671366 C187.98241,7.15889282 187.175976,6.98015956 186.361463,6.9952511 C185.417609,6.9952511 184.587066,7.17322467 183.869833,7.52917181 C183.174179,7.8702624 182.556464,8.3513467 182.055392,8.94228194 C181.551842,9.54501094 181.16579,10.2368266 180.917251,10.981859 C180.651249,11.7550645 180.485858,12.559288 180.425154,13.3747137 L191.989877,13.3756035 Z" id="Shape" fill="#2C3E50" fill-rule="nonzero"></path>
                <path d="M195.823427,9.8481674 L195.912414,9.8481674 C196.065622,9.31682794 196.332176,8.8250088 196.693718,8.4065815 C197.086372,7.94423409 197.553079,7.55030027 198.074793,7.24085463 C198.638923,6.90466867 199.248503,6.65142635 199.884784,6.4889163 C200.560632,6.31450456 201.257868,6.23720032 201.955507,6.2593304 L201.955507,7.4241674 C201.341498,7.3428928 200.640875,7.40429369 199.853639,7.60837004 C199.066402,7.8124464 198.314761,8.26242291 197.598714,8.95829956 C197.332519,9.24117766 197.081804,9.53823333 196.847665,9.8481674 C196.630174,10.1410789 196.450765,10.4604269 196.313744,10.7985463 C196.161102,11.1758542 196.046918,11.5676001 195.972925,11.9678326 C195.883315,12.4746218 195.83215,12.9874608 195.819868,13.5019648 L195.819868,22.1212247 L194.654141,22.1212247 L194.654141,6.35098678 L195.819868,6.35098678 L195.823427,9.8481674 Z" id="Path" fill="#2C3E50" fill-rule="nonzero"></path>
            </g>
        </g>
    </g>
</svg>