<?xml version="1.0" encoding="UTF-8"?>
<svg width="180px" height="70px" viewBox="0 0 180 70" version="1.1" xmlns="http://www.w3.org/2000/svg" xmlns:xlink="http://www.w3.org/1999/xlink">
    <!-- Generator: Sketch 48.2 (47327) - http://www.bohemiancoding.com/sketch -->
    <title>Artboard</title>
    <desc>Created with Sketch.</desc>
    <defs></defs>
    <g id="Page-1" stroke="none" stroke-width="1" fill="none" fill-rule="evenodd">
        <g id="Artboard" fill-rule="nonzero">
            <g id="logo" transform="translate(0.000000, 22.000000)">
                <g id="Clipped" transform="translate(0.000000, 0.123542)">
                    <g id="Group">
                        <path d="M19.9913658,1.52993823 C19.9913658,0.716046671 19.325477,0.049787234 18.5102265,0.049787234 L1.50028826,0.049787234 C0.685655456,0.049787234 0.0179135209,0.716170213 0.0179135209,1.52993823 L0.0179135209,18.5437062 C0.0179135209,19.3571036 0.685655456,20.0234866 1.50028826,20.0234866 L18.5102265,20.0234866 C19.325477,20.0234866 19.9913658,19.3571036 19.9913658,18.5437062 L19.9913658,1.52993823 Z" id="Shape" fill="#338EC7"></path>
                        <path d="M16.8892382,6.18943034 C16.4274399,5.12684969 15.5353466,4.43649966 14.3781332,4.2435278 C13.0125051,4.01695264 11.5227179,4.53632121 10.5813315,5.56764585 C10.4738504,5.68550446 10.3706932,5.80719286 10.2693892,5.93011668 C10.3589568,5.32043926 10.4397529,4.76759094 10.5074537,4.30233356 C10.5451338,4.04561428 9.99129719,4.2048593 9.87825669,4.23525051 C9.67614276,4.29109128 9.47674674,4.3673164 9.29266987,4.46763212 C9.22398078,4.5050652 8.99888813,4.61884695 8.98369252,4.71940975 C8.84989705,5.63967056 8.6530954,6.96687714 8.43838023,8.40625944 C8.10259437,8.82420041 7.74679478,9.20297872 7.33453672,9.50997941 C6.87496225,9.85280714 6.3065477,9.98882636 5.81460535,9.87393274 C5.38221002,9.77361702 5.03691146,9.49058339 4.81601922,9.05769389 C4.22227865,7.89566232 4.55571723,6.3874674 4.87853123,4.92918325 C4.9263418,4.71397392 4.96846946,4.50790666 5.01146191,4.30060398 C5.08818119,3.98334935 5.16255319,3.63755662 5.23173644,3.25927248 C5.27781743,3.00452986 4.71483871,3.16179822 4.60266301,3.19256005 C4.40030199,3.24790666 4.2012766,3.32413178 4.01707618,3.42444749 C3.94826356,3.46188058 3.68919698,3.63805079 3.67486616,3.73873713 L3.67363075,3.74417296 C3.67363075,3.74417296 3.54749485,4.31913521 3.4812766,4.61995882 C3.12140014,6.24551819 2.71358957,8.0883871 3.54131778,9.70851064 C3.95468771,10.5167193 4.64614962,11.0714207 5.48870281,11.2677282 C6.3648593,11.4713246 7.30463967,11.2708167 8.09172272,10.7234043 C7.62560055,13.833315 7.18369252,16.7600137 7.18369252,16.7600137 C7.18369252,16.7600137 7.31477008,17.3316404 7.4564722,17.7968977 L8.11803706,17.8810295 C8.37142073,17.4665477 8.64160604,16.9459437 8.64160604,16.9459437 C8.64160604,16.9459437 9.26116678,12.7699931 9.8241455,8.95466026 C10.0420728,8.66483185 10.2508579,8.37018531 10.4560604,8.07788607 C10.8473164,7.52021963 11.2174468,6.99356211 11.6382292,6.53275223 C12.2511187,5.86118051 13.2584763,5.50661633 14.1435278,5.65573095 C14.6122443,5.73368566 15.2415649,5.98855182 15.5766095,6.75994509 C15.8775566,7.45091283 15.8307344,8.37302677 15.4493617,9.28809883 C15.0409334,10.2684008 14.3095676,11.0835278 13.5859849,11.3656966 C13.0714345,11.5657104 12.5482361,11.5316129 12.2203569,11.276129 C11.9028552,11.0285518 11.7455868,10.5476047 11.7592999,9.90382979 C11.7973507,9.65081675 11.8586273,9.24387097 11.9535072,8.58761839 C11.9909403,8.33188744 11.4371036,8.49039121 11.3241867,8.52090597 C11.1225669,8.5766232 10.9237886,8.65260124 10.7393411,8.75304049 C10.670652,8.79072066 10.4448181,8.9045024 10.4306108,9.00494166 C10.4156623,9.10846946 10.2013178,10.6663281 10.0603569,11.7680714 C9.99302677,12.293617 10.7194509,12.4093754 11.1696362,12.2539602 C11.2263418,12.3081949 11.2836651,12.3607001 11.3406177,12.4052986 C11.7843789,12.7509677 12.3378449,12.9283734 12.9272615,12.9283734 C13.3115992,12.9283734 13.711256,12.852766 14.1049828,12.6992038 C15.1905422,12.2773095 16.2114894,11.1811256 16.7707618,9.83909403 C17.3087852,8.54722032 17.3505422,7.25126973 16.8892382,6.18943034" id="Shape" fill="#FFFFFF"></path>
                        <path d="M7.45622512,17.7968977 C7.55122855,18.1090872 7.65030885,18.3735896 7.71800961,18.3822375 C7.7852162,18.3907618 8.11791352,17.8810295 8.11791352,17.8810295 C7.78719286,17.6542073 7.45622512,17.7968977 7.45622512,17.7968977" id="Shape" fill="#2C3E50"></path>
                    </g>
                </g>
                <g id="Clipped" transform="translate(28.291009, 5.559369)" fill="#2C3E50">
                    <path d="M12.8669732,14.5819767 L9.71419355,14.5819767 L9.71419355,12.5554015 L9.65798216,12.5554015 C9.26400824,13.287385 8.67706246,13.8737131 7.89850377,14.3148799 C7.11945093,14.755429 6.32668497,14.9760741 5.51971174,14.9760741 C3.60543583,14.9760741 2.2212766,14.502663 1.36785175,13.5546054 C0.513438572,12.6069183 0.0868496911,11.1756898 0.0868496911,9.26153741 L0.0868496911,0.0281674674 L3.29584077,0.0282910089 L3.29584077,8.95181881 C3.29584077,10.2281263 3.53971174,11.1292382 4.0278243,11.6544132 C4.51544269,12.1799588 5.20048044,12.4426081 6.082814,12.4426081 C6.75870968,12.4426081 7.32131778,12.3398216 7.77199725,12.1328895 C8.22230611,11.9264516 8.58811256,11.6503363 8.86991078,11.3026905 C9.15109128,10.9556623 9.35258751,10.5382155 9.47489362,10.0494852 C9.59670556,9.56199039 9.65798216,9.03619767 9.65798216,8.47321894 L9.65798216,0.0281674674 L12.8669732,0.0281674674 L12.8669732,14.5819767 Z" id="Shape"></path>
                </g>
                <g id="Clipped" transform="translate(43.486616, 0.000000)" fill="#2C3E50">
                    <path d="M0.0926561428,0.0420041181 L3.30152368,0.0420041181 L3.30152368,7.47364447 L3.35773507,7.47364447 C3.58332189,7.11747426 3.8549897,6.79811942 4.174221,6.51644475 C4.49295813,6.23501716 4.84505148,5.99596431 5.22988332,5.79854496 C5.61446809,5.60174331 6.01807824,5.45151682 6.44046671,5.3482361 C6.86248456,5.2455731 7.27980782,5.19343857 7.69305422,5.19343857 C8.8375429,5.19343857 9.83674674,5.39530542 10.6910364,5.79842141 C11.5444612,6.20215511 12.2533425,6.75562114 12.8163212,7.45931366 C13.3794235,8.16288264 13.8016884,8.98455731 14.083116,9.92248456 C14.3647907,10.8615237 14.5055045,11.8652986 14.5055045,12.934674 C14.5055045,13.9108991 14.3786273,14.8585861 14.1254907,15.7778586 C13.8721071,16.6975017 13.4871517,17.5091695 12.9711187,18.2133562 C12.4545916,18.9169252 11.8030336,19.4800275 11.0148387,19.9019218 C10.2266438,20.3243102 9.29736445,20.5353191 8.22786548,20.5353191 C7.73962938,20.5353191 7.24694578,20.5024571 6.75006177,20.4372272 C6.25231297,20.3710089 5.77877831,20.2443789 5.328593,20.0568428 C4.87778998,19.8694303 4.46960879,19.6253123 4.10367879,19.3253535 C3.73799588,19.0251476 3.43247769,18.6311736 3.18897735,18.1425669 L3.13239533,18.1425669 L3.13239533,20.1413452 L0.0926561428,20.1413452 L0.0926561428,0.0420041181 Z M11.2962663,12.8787097 C11.2962663,12.2220865 11.2117639,11.5836239 11.0428826,10.9643102 C10.874372,10.3451201 10.6207412,9.79610158 10.2829787,9.3177488 C9.94496911,8.83914894 9.52307481,8.45456417 9.01630748,8.16312972 C8.50941661,7.87280714 7.92765957,7.72715168 7.27091283,7.72715168 C5.91961565,7.72715168 4.90126287,8.19660947 4.21671929,9.13453672 C3.53131091,10.0734523 3.18922443,11.3210981 3.18922443,12.8788332 C3.18922443,13.6108167 3.27780371,14.2912835 3.45644475,14.9197392 C3.63446809,15.5488126 3.90205903,16.0878243 4.25859986,16.5386273 C4.61489362,16.9889362 5.04234729,17.345477 5.53972546,17.6080027 C6.03648593,17.8711462 6.61367193,18.0021002 7.27091283,18.0021002 C8.00289636,18.0021002 8.62221002,17.8522443 9.12910089,17.5516678 C9.63562114,17.251709 10.0529444,16.8621826 10.3816884,16.3835827 C10.7096911,15.9051064 10.9447907,15.3606589 11.0855045,14.7506108 C11.2258476,14.1409334 11.2962663,13.5166781 11.2962663,12.8787097 Z" id="Shape"></path>
                </g>
                <g id="Clipped" transform="translate(58.929307, 5.188744)" fill="#2C3E50">
                    <path d="M3.22863418,8.50632807 C3.22863418,9.06893617 3.30807138,9.61375429 3.46793411,10.1390528 C3.62730268,10.6644749 3.86660261,11.1245436 4.18571036,11.5185175 C4.50457104,11.9124914 4.90818119,12.2267811 5.39629375,12.46151 C5.88403569,12.6962388 6.46579272,12.8132327 7.1416884,12.8132327 C8.07961565,12.8132327 8.83482498,12.6117364 9.40756349,12.2081263 C9.97968428,11.8050103 10.4067673,11.1995333 10.688442,10.3925601 L13.7287989,10.3925601 C13.5599176,11.180755 13.2684832,11.8844475 12.8562251,12.5036376 C12.4429787,13.1228277 11.9457241,13.6439259 11.3639671,14.0659437 C10.78221,14.4883322 10.1300343,14.8075635 9.40756349,15.0231434 C8.68509266,15.2385999 7.92988332,15.3469458 7.1416884,15.3469458 C5.99633493,15.3469458 4.98292382,15.1591627 4.10120796,14.78372 C3.2188744,14.408895 2.47280714,13.8832258 1.86312972,13.2073301 C1.25308167,12.5319286 0.793630748,11.7250789 0.48403569,10.786534 C0.174440631,9.84811256 0.0196431023,8.81617021 0.0196431023,7.69008922 C0.0196431023,6.65802334 0.183706246,5.67710364 0.511956074,4.74831846 C0.840329444,3.81940975 1.30978723,3.00304736 1.91983528,2.29935484 C2.5295127,1.59553878 3.26594372,1.03713109 4.12962251,0.624255319 C4.99280714,0.211997255 5.96866163,0.00506520247 7.05730954,0.00506520247 C8.20167467,0.00506520247 9.22916953,0.244365134 10.1396706,0.722841455 C11.0499245,1.20144132 11.8051338,1.83483871 12.4056692,2.62303363 C13.0062045,3.41122855 13.4428003,4.31678792 13.7149623,5.33971174 C13.9866301,6.36263555 14.0570487,7.41829787 13.9259712,8.50657515 L3.22863418,8.50657515 L3.22863418,8.50632807 Z M10.7168566,6.39487989 C10.6789293,5.88835964 10.5710776,5.40024708 10.3930542,4.93128346 C10.2145367,4.46219629 9.97066575,4.0540151 9.66107069,3.70649279 C9.35147563,3.35946465 8.97566232,3.0781606 8.5349897,2.86221002 C8.09382292,2.64663006 7.60113933,2.53840769 7.05730954,2.53840769 C6.49433082,2.53840769 5.98274537,2.63711736 5.52304736,2.83379547 C5.06310226,3.03121482 4.6690048,3.30325326 4.34075498,3.6502814 C4.01238161,3.99780371 3.74985587,4.40610844 3.55256005,4.8745779 C3.35526424,5.34403569 3.24753603,5.85080302 3.22888126,6.39487989 L10.7168566,6.39487989 Z" id="Shape"></path>
                </g>
                <g id="Clipped" transform="translate(74.248456, 5.188744)" fill="#2C3E50">
                    <path d="M0.0145778998,0.39891558 L3.02664379,0.39891558 L3.02664379,3.2138092 L3.08285518,3.2138092 C3.17649966,2.81971174 3.35958819,2.43562114 3.63175017,2.05980782 C3.90341798,1.68436513 4.23228552,1.34190803 4.61711736,1.03231297 C5.00120796,0.722717914 5.42866163,0.474275909 5.89762526,0.286122169 C6.36658888,0.0988332189 6.84518874,0.00481811942 7.33342485,0.00481811942 C7.70886754,0.00481811942 7.96682224,0.0144543583 8.10790666,0.0331091283 C8.24862045,0.0517638984 8.39390528,0.0704186685 8.54413178,0.0893205216 L8.54413178,3.18588881 C8.31903912,3.14833219 8.08875772,3.11571723 7.85452299,3.08730268 C7.61942347,3.05901167 7.3901304,3.04480439 7.16454358,3.04480439 C6.62009609,3.04480439 6.10925189,3.15290323 5.63052848,3.36835964 C5.15192862,3.58455731 4.73411119,3.90378861 4.37794097,4.32568291 C4.02078243,4.74807138 3.73947838,5.26867536 3.53316404,5.8882361 C3.32672615,6.50754976 3.22344544,7.22087852 3.22344544,8.02760467 L3.22344544,14.9524777 L0.0145778998,14.9524777 L0.0145778998,0.39891558 Z" id="Shape"></path>
                </g>
                <g id="Clipped" transform="translate(84.255319, 5.312286)" fill="#2C3E50">
                    <path d="M1.09853123,3.68166095 L1.18291009,3.68166095 C1.29520933,3.32536719 1.48299245,2.93139327 1.7461359,2.49936857 C2.00866163,2.06783802 2.35581332,1.66867536 2.78734386,1.30286891 C3.21875086,0.937185999 3.739849,0.632038435 4.34989705,0.387796843 C4.95957447,0.144420041 5.65857241,0.0219903912 6.44689087,0.0219903912 C7.55431709,0.0219903912 8.51608785,0.228798902 9.33245024,0.641180508 C10.1489362,1.0544269 10.8243377,1.60789293 11.3590254,2.30207275 C11.8943308,2.9966232 12.2925051,3.80396706 12.5556486,4.72323953 C12.8181743,5.64300618 12.9496225,6.60934798 12.9496225,7.62263555 C12.9496225,8.73055594 12.8176802,9.74396706 12.5546603,10.6629925 C12.2911462,11.5827591 11.8916129,12.3758957 11.3555662,13.0417845 C10.8190254,13.7080439 10.1416472,14.2285244 9.32380233,14.6040906 C8.50558682,14.9795333 7.54159231,15.1670693 6.43181881,15.1670693 C5.22716541,15.1670693 4.15494852,14.904173 3.21479753,14.3788744 C2.27402883,13.8538229 1.58763212,12.9992862 1.15474262,11.8171174 L1.09951956,11.8171174 L1.09865477,20.0092793 L0.0569526424,20.0092793 L0.0569526424,0.36 L1.09865477,0.36 L1.09865477,3.68166095 L1.09853123,3.68166095 Z M6.43280714,14.2381606 C7.37332876,14.2381606 8.18722032,14.0601373 8.87411119,13.7029787 C9.56087852,13.3468085 10.1252162,12.8680851 10.5677419,12.2677968 C11.0097735,11.667138 11.3390117,10.9680165 11.55558,10.1701853 C11.7719012,9.37284832 11.8802471,8.52350034 11.8802471,7.62251201 C11.8802471,6.79688401 11.7761016,5.98546328 11.5696637,5.18763212 C11.3622375,4.39029513 11.0426356,3.67696637 10.6097461,3.04826356 C10.176733,2.41931366 9.61733699,1.91291695 8.93056966,1.52796156 C8.24318463,1.14350034 7.41113246,0.950652025 6.4326836,0.950652025 C5.47313658,0.950652025 4.65430336,1.13892931 3.97717227,1.51387783 C3.29991764,1.88969115 2.74916953,2.38645161 2.32579272,3.00564173 C1.9020453,3.62544955 1.59665065,4.33371311 1.40837337,5.13142073 C1.22034317,5.92937543 1.12620453,6.75945093 1.12620453,7.62251201 C1.12620453,8.48606726 1.21083047,9.3162663 1.3802059,10.1140975 C1.54958133,10.9118051 1.83632121,11.6154976 2.2409197,12.225175 C2.64551819,12.8353466 3.1912011,13.3230885 3.87796843,13.6893892 C4.56547701,14.0550721 5.41667811,14.2381606 6.43280714,14.2381606 Z" id="Shape"></path>
                </g>
                <g id="Clipped" transform="translate(98.462594, 5.559369)" fill="#2C3E50">
                    <path d="M11.579547,14.5819767 L10.5095539,14.5819767 L10.5095539,11.4854084 L10.453466,11.4854084 C10.2653123,12.0302265 9.99809197,12.5127797 9.65094029,12.9354152 C9.30354152,13.3576802 8.90042553,13.7190391 8.44048044,14.0188744 C7.98053535,14.3194509 7.47883322,14.5446671 6.93450927,14.6950172 C6.39006177,14.8446259 5.83659574,14.9198627 5.27361702,14.9198627 C4.42921071,14.9198627 3.71131091,14.8167056 3.12004118,14.6103912 C2.52914207,14.4039533 2.04547701,14.1316678 1.67052848,13.7939053 C1.29483871,13.4560192 0.999203844,13.0760055 0.783623885,12.6541112 C0.567673301,12.2315992 0.412999314,11.8051338 0.319354839,11.3731091 C0.224722032,10.9415786 0.16863418,10.5242553 0.150226493,10.1203981 C0.13132464,9.71666438 0.121935484,9.36518874 0.121935484,9.06461222 L0.121935484,0.112793411 L1.19192862,0.112793411 L1.19192862,9.26153741 C1.19192862,9.63735072 1.219849,10.0923542 1.27643102,10.6269183 C1.33264242,11.1617296 1.49645848,11.6782567 1.76862045,12.1753878 C2.04078243,12.6726424 2.448593,13.0997255 2.99341112,13.4558957 C3.53724091,13.8130542 4.30678106,13.9910776 5.30190803,13.9910776 C6.10814001,13.9910776 6.83579959,13.8407275 7.48328071,13.5405216 C8.13076184,13.2403157 8.67978037,12.8224983 9.12996568,12.2878106 C9.5807687,11.7528758 9.9226081,11.1150309 10.157337,10.3735347 C10.3920659,9.63228552 10.5095539,8.82086479 10.5095539,7.93853123 L10.5095539,0.112793411 L11.579547,0.112793411 L11.579547,14.5819767 Z" id="Shape"></path>
                </g>
                <g id="Clipped" transform="translate(112.299245, 0.000000)" fill="#2C3E50">
                    <path d="M0.0229787234,0.0420041181 L1.06480439,0.0420041181 L1.06480439,8.74043926 L1.12089224,8.74043926 C1.32770075,8.17733699 1.61901167,7.68452986 1.99581332,7.26275909 C2.37175017,6.84037062 2.80463967,6.48420041 3.29374056,6.19276596 C3.78271791,5.90231984 4.30925189,5.68624571 4.87371311,5.54516129 C5.43805079,5.40457104 6.02129032,5.33415237 6.62355525,5.33415237 C7.69589568,5.33415237 8.62208648,5.52181194 9.40274537,5.89713109 C10.1832807,6.27294441 10.8366918,6.78860673 11.36372,7.44522992 C11.8906246,8.10234729 12.2806452,8.8673164 12.5350172,9.73951956 C12.788895,10.6122169 12.9157721,11.55558 12.9157721,12.5688675 C12.9157721,14.2954839 12.6806726,15.6796431 12.21035,16.7208511 C11.7399039,17.7624296 11.1754427,18.5606314 10.517337,19.1137268 C9.85910776,19.6675635 9.17209334,20.0332464 8.45752917,20.2113933 C7.74222375,20.3895402 7.13081675,20.4789842 6.62343171,20.4789842 C5.66351407,20.4789842 4.8498696,20.3288813 4.18212766,20.0287989 C3.51438572,19.7287165 2.96425532,19.3767467 2.53148936,18.973013 C2.09847632,18.56965 1.76973233,18.1706108 1.5441455,17.7765134 C1.31806452,17.3824159 1.17685655,17.0914756 1.1207687,16.9038161 L1.06554564,16.9038161 L1.06554564,20.1410981 L0.0229787234,20.1410981 L0.0229787234,0.0420041181 Z M6.62491421,19.5504461 C7.58384351,19.5504461 8.39304049,19.3440082 9.05201098,18.9311325 C9.70999314,18.5183802 10.2469046,17.9786273 10.6608922,17.3122443 C11.0746328,16.6464791 11.3754564,15.8953466 11.5637337,15.0602059 C11.7522581,14.2254358 11.8463967,13.3951132 11.8463967,12.5691146 C11.8463967,11.7623885 11.7381743,10.9832121 11.521606,10.2324502 C11.3051613,9.48218257 10.9759231,8.81073439 10.5340151,8.21995882 C10.0913658,7.62856555 9.54568291,7.15503089 8.89671929,6.79836651 C8.24738504,6.44170213 7.49019904,6.26306108 6.62491421,6.26306108 C5.68365134,6.26306108 4.86543583,6.42292382 4.16890872,6.74178449 C3.47250515,7.06138641 2.89865477,7.50205903 2.44723404,8.06516129 C1.99568977,8.62814001 1.65693892,9.29452299 1.43110501,10.0634454 C1.20527111,10.8333562 1.09247769,11.6681263 1.09247769,12.5691146 C1.09247769,13.4514482 1.19600549,14.3145093 1.40293754,15.158792 C1.6098696,16.0031984 1.93453672,16.7495127 2.37706246,17.3968703 C2.81897049,18.0443514 3.38824983,18.5649554 4.08440631,18.9591764 C4.78043926,19.3531503 5.62719286,19.5504461 6.62491421,19.5504461 Z" id="Shape"></path>
                </g>
                <g id="Clipped" transform="translate(126.753603, 0.000000)" fill="#2C3E50">
                    <rect id="Rectangle-path" x="0.094138641" y="0.0420041181" width="1.06937543" height="20.0993411"></rect>
                </g>
                <g id="Clipped" transform="translate(130.336307, 0.000000)" fill="#2C3E50">
                    <path d="M0.114770075,0.0420041181 L1.18439259,0.0420041181 L1.18439259,2.9412766 L0.114770075,2.9412766 L0.114770075,0.0420041181 Z M0.114770075,5.67228552 L1.18439259,5.67228552 L1.18439259,20.1414688 L0.114770075,20.1414688 L0.114770075,5.67228552 Z" id="Shape"></path>
                </g>
                <g id="Clipped" transform="translate(133.177763, 5.312286)" fill="#2C3E50">
                    <path d="M1.12991078,10.0153878 C1.1674674,10.6909128 1.31707618,11.2871242 1.58009609,11.8027865 C1.84274537,12.3193137 2.18520247,12.7598627 2.60759094,13.1261633 C3.03010295,13.4919698 3.52278655,13.7690734 4.08539465,13.9564859 C4.64837337,14.1445161 5.25805079,14.2381606 5.91516815,14.2381606 C6.38425532,14.2381606 6.88645161,14.1956623 7.42113933,14.1111599 C7.95644475,14.0267811 8.45332876,13.87186 8.91352093,13.6467673 C9.37297186,13.4217982 9.75298559,13.1075086 10.0534386,12.7037749 C10.3535209,12.3004118 10.503871,11.7890734 10.503871,11.1693892 C10.503871,10.3630336 10.2598765,9.7527385 9.77225806,9.33998627 C9.28402196,8.9271105 8.66940288,8.60800275 7.92815374,8.38291009 C7.18665752,8.15719973 6.38932052,7.97460535 5.53540151,7.8340151 C4.68135896,7.6926836 3.88377488,7.48179822 3.14252574,7.20061771 C2.40090597,6.91881949 1.78653397,6.520151 1.29891558,6.00399451 C0.810308854,5.48808511 0.566932052,4.73287577 0.566932052,3.73762526 C0.566932052,3.02479067 0.72568291,2.42882636 1.04540837,1.95022649 C1.3641455,1.47162663 1.77245024,1.09173644 2.26970487,0.810061771 C2.76695951,0.528757721 3.32561428,0.327385038 3.94480439,0.204955388 C4.56424159,0.0830199039 5.18380233,0.0218668497 5.80299245,0.0218668497 C6.55326012,0.0218668497 7.25695264,0.106369252 7.91407001,0.275250515 C8.57069321,0.444255319 9.13873713,0.716417296 9.61746054,1.09173644 C10.0959369,1.46705559 10.4708854,1.945779 10.7430474,2.52704187 C11.0152093,3.10929307 11.1513521,3.81286205 11.1513521,4.63873713 L10.0818531,4.63873713 C10.0818531,3.98211393 9.97350721,3.41888813 9.75805079,2.94943034 C9.54222375,2.48046671 9.24152368,2.10057653 8.85706246,1.80963624 C8.47210707,1.51881949 8.01735072,1.30262183 7.49168154,1.16203157 C6.9661359,1.02094715 6.40340426,0.950775566 5.80299245,0.950775566 C5.31475635,0.950775566 4.82207275,0.997721345 4.32469458,1.09185999 C3.82756349,1.18587509 3.38170213,1.34487303 2.98772821,1.57045985 C2.59363075,1.79555251 2.26970487,2.08636925 2.01693892,2.44315717 C1.76343171,2.79969801 1.63643102,3.23122855 1.63643102,3.7377488 C1.63643102,4.32 1.77763898,4.78896362 2.05894303,5.14525738 C2.34012354,5.50241592 2.71050103,5.78866163 3.17081675,6.00411805 C3.63076184,6.22019218 4.14630062,6.39364447 4.71891558,6.52472203 C5.29153054,6.65629375 5.86822237,6.78786548 6.45059712,6.91881949 C7.16355525,7.05039121 7.83426218,7.2050652 8.462965,7.38333562 C9.09191489,7.56172958 9.63574468,7.80584763 10.0960604,8.11531915 C10.5556349,8.42491421 10.9167467,8.82407687 11.1797666,9.31181881 C11.4424159,9.80005491 11.5737406,10.419245 11.5737406,11.1695127 C11.5737406,11.9577076 11.3953466,12.6053123 11.0390528,13.1122032 C10.6823885,13.619094 10.231709,14.0269046 9.68775566,14.3364997 C9.14306108,14.6467124 8.53783116,14.8620453 7.87206589,14.9839808 C7.20543583,15.1059163 6.55326012,15.1669458 5.91516815,15.1669458 C5.08916953,15.1669458 4.32469458,15.0588469 3.62100206,14.8433905 C2.91743308,14.627687 2.30269046,14.2994372 1.77751544,13.8582704 C1.25184626,13.4171036 0.838599863,12.8777213 0.538641043,12.2393823 C0.238064516,11.6015374 0.0788194921,10.8597941 0.0600411805,10.0155113 L1.12991078,10.0155113 L1.12991078,10.0153878 Z" id="Shape"></path>
                </g>
                <g id="Clipped" transform="translate(146.149623, 0.000000)" fill="#2C3E50">
                    <path d="M1.13522306,0.0420041181 L1.13522306,8.76860673 L1.19131091,8.76860673 C1.37859986,8.22428277 1.6461908,7.74123542 1.99371311,7.3187234 C2.34074125,6.89645848 2.74398078,6.53559369 3.2042965,6.2351407 C3.66374743,5.93505834 4.1655731,5.70996568 4.71026767,5.55924502 C5.254221,5.4095127 5.80805765,5.33415237 6.37115992,5.33415237 C7.21556623,5.33415237 7.93346603,5.43730954 8.52424159,5.64374743 C9.11563487,5.85067948 9.59892931,6.12234729 9.97424846,6.46023336 C10.3495676,6.79811942 10.6449554,7.17813315 10.8610295,7.600151 C11.0766095,8.02253946 11.231407,8.44949897 11.3254221,8.88090597 C11.4190666,9.31293068 11.475278,9.73037749 11.4944269,10.1341112 C11.5125875,10.5378449 11.5227179,10.8894441 11.5227179,11.1894029 L11.5227179,20.1413452 L10.4528483,20.1413452 L10.4528483,10.9926012 C10.4528483,10.6359369 10.4245573,10.1857515 10.3683459,9.64130405 C10.3121345,9.0969801 10.1478243,8.57637612 9.87566232,8.07875086 C9.60350034,7.58186685 9.19074811,7.1547838 8.63715854,6.79811942 C8.08332189,6.44157859 7.31835278,6.26306108 6.34299245,6.26306108 C5.51699382,6.26306108 4.7850103,6.4136582 4.14753603,6.71361702 C3.50907344,7.01419355 2.96536719,7.43151682 2.51444063,7.96632807 C2.06413178,8.50101579 1.72167467,9.1392313 1.48706932,9.88048044 C1.25234043,10.6221002 1.1353466,11.4336445 1.1353466,12.3153603 L1.1353466,20.1412217 L0.065353466,20.1413452 L0.065353466,0.0420041181 L1.13522306,0.0420041181 Z" id="Shape"></path>
                </g>
                <g id="Clipped" transform="translate(158.997941, 5.312286)" fill="#2C3E50">
                    <path d="M1.09519561,7.73530542 L1.09519561,7.90418668 C1.09519561,8.748593 1.20798902,9.55531915 1.43407001,10.3249828 C1.65965683,11.0948936 1.99346603,11.7704187 2.43586822,12.3520522 C2.87802334,12.9339327 3.43321894,13.3933837 4.1013315,13.7312697 C4.7689499,14.0691558 5.54528483,14.2381606 6.42996568,14.2381606 C7.87886067,14.2381606 9.02693205,13.8582704 9.87356211,13.0979959 C10.7203157,12.3379684 11.3033082,11.2823061 11.6234043,9.93100892 L12.6935209,9.93100892 C12.3741661,11.6201922 11.6841867,12.9147838 10.6242004,13.8157721 C9.56384351,14.7167605 8.16102951,15.1669458 6.41563487,15.1669458 C5.34638298,15.1669458 4.41228552,14.974221 3.6145779,14.5897598 C2.81674674,14.2052986 2.15085793,13.6797529 1.61629375,13.0133699 C1.08098833,12.3474811 0.682196294,11.5594097 0.419794097,10.6487852 C0.156650652,9.73865477 0.0256966369,8.75822924 0.0256966369,7.70701441 C0.0256966369,6.69360329 0.16134523,5.72244338 0.433507207,4.79353466 C0.705669183,3.8645024 1.11385038,3.04814001 1.65817433,2.34432395 C2.20249828,1.64075498 2.882965,1.07765271 3.6990803,0.655264242 C4.51568977,0.232875772 5.47746054,0.0218668497 6.58463967,0.0218668497 C7.59792725,0.0218668497 8.49397392,0.209649966 9.27302677,0.584845573 C10.051709,0.96078243 10.7037612,1.47175017 11.2294303,2.1192313 C11.7546054,2.76646534 12.1536445,3.5175978 12.4258065,4.37089911 C12.6974743,5.22555937 12.8341112,6.14013727 12.8341112,7.11599176 C12.8341112,7.21025395 12.8291695,7.31798216 12.820151,7.43929993 C12.8105148,7.56160604 12.8059437,7.66031572 12.8059437,7.73530542 L1.09519561,7.73530542 Z M11.7364447,6.80602608 C11.698394,6.01783116 11.5668222,5.27201098 11.3412354,4.568442 C11.115278,3.86474949 10.7814688,3.24494166 10.3394372,2.71037749 C9.897035,2.17556623 9.36098833,1.74910089 8.73018531,1.42937543 C8.09962938,1.1106383 7.37987646,0.950899108 6.5710501,0.950899108 C5.70527111,0.950899108 4.94314345,1.1157035 4.28454358,1.4435827 C3.6255731,1.77245024 3.07087165,2.20398078 2.61957447,2.7386685 C2.16753603,3.27335621 1.81989019,3.89761153 1.57515443,4.61032258 C1.33054221,5.32365134 1.17982155,6.05563487 1.12361016,6.80590254 L11.7364447,6.80590254 L11.7364447,6.80602608 Z" id="Shape"></path>
                </g>
                <g id="Clipped" transform="translate(173.081675, 5.559369)" fill="#2C3E50">
                    <path d="M1.17117364,3.32178449 L1.25567605,3.32178449 C1.3867536,2.85319149 1.62592999,2.41165408 1.97320522,1.99890185 C2.32023336,1.58639671 2.74262183,1.2293617 3.24037062,0.929402883 C3.73713109,0.629320522 4.29121482,0.399162663 4.90113933,0.239299931 C5.51081675,0.0804255319 6.14421414,0.00963623885 6.8013315,0.0282910089 L6.8013315,1.09778998 C6.2381057,1.02329444 5.59482498,1.07950583 4.87297186,1.26679478 C4.15000686,1.45494852 3.46039808,1.86770075 2.80377488,2.50566918 C2.54063143,2.78684969 2.31121482,3.05901167 2.11416609,3.32166095 C1.91687028,3.58468085 1.75243651,3.8754976 1.62160604,4.19423473 C1.49015786,4.51383665 1.38687714,4.8701304 1.3117639,5.26410432 C1.23652711,5.65832533 1.18958133,6.12778312 1.17129719,6.6716129 L1.17129719,14.5818531 L0.101304049,14.5818531 L0.101304049,0.11266987 L1.17129719,0.11266987 L1.17129719,3.32178449 L1.17117364,3.32178449 Z" id="Shape"></path>
                </g>
            </g>
        </g>
    </g>
</svg>