<?xml version="1.0" encoding="utf-8"?>
<!-- Generator: Adobe Illustrator 16.0.0, SVG Export Plug-In . SVG Version: 6.00 Build 0)  -->
<!DOCTYPE svg PUBLIC "-//W3C//DTD SVG 1.1//EN" "http://www.w3.org/Graphics/SVG/1.1/DTD/svg11.dtd" [
	<!ENTITY ns_flows "http://ns.adobe.com/Flows/1.0/">
	<!ENTITY ns_extend "http://ns.adobe.com/Extensibility/1.0/">
	<!ENTITY ns_ai "http://ns.adobe.com/AdobeIllustrator/10.0/">
	<!ENTITY ns_graphs "http://ns.adobe.com/Graphs/1.0/">
]>
<svg version="1.1" id="Layer_1" xmlns:x="&ns_extend;" xmlns:i="&ns_ai;" xmlns:graph="&ns_graphs;"
	 xmlns="http://www.w3.org/2000/svg" xmlns:xlink="http://www.w3.org/1999/xlink" xmlns:a="http://ns.adobe.com/AdobeSVGViewerExtensions/3.0/"
	 x="0px" y="0px" width="1600px" height="548px" viewBox="0 0 1600 548" enable-background="new 0 0 1600 548" xml:space="preserve"
	>
<g>
	<defs>
		<rect id="SVGID_1_" x="-53.5" y="58.473" width="1707" height="411.055"/>
	</defs>
	<clipPath id="SVGID_2_">
		<use xlink:href="#SVGID_1_"  overflow="visible"/>
	</clipPath>
	<g clip-path="url(#SVGID_2_)">
		<path fill="#338EC7" d="M254.819,217.384c0-6.588-5.39-11.981-11.989-11.981H105.144c-6.594,0-11.999,5.394-11.999,11.981v137.717
			c0,6.584,5.405,11.978,11.999,11.978H242.83c6.599,0,11.989-5.394,11.989-11.978V217.384z"/>
		<path fill="#FFFFFF" d="M229.709,255.1c-3.738-8.601-10.959-14.189-20.326-15.751c-11.054-1.834-23.113,2.37-30.733,10.718
			c-0.87,0.954-1.705,1.939-2.525,2.934c0.725-4.935,1.379-9.41,1.927-13.176c0.305-2.078-4.178-0.789-5.093-0.543
			c-1.636,0.452-3.25,1.069-4.74,1.881c-0.556,0.303-2.378,1.224-2.501,2.038c-1.083,7.449-2.676,18.192-4.414,29.843
			c-2.718,3.383-5.598,6.449-8.935,8.934c-3.72,2.775-8.321,3.876-12.303,2.946c-3.5-0.812-6.295-3.103-8.083-6.607
			c-4.806-9.406-2.107-21.614,0.506-33.418c0.387-1.742,0.728-3.41,1.076-5.088c0.621-2.568,1.223-5.367,1.783-8.429
			c0.373-2.062-4.184-0.789-5.092-0.54c-1.638,0.448-3.249,1.065-4.74,1.877c-0.557,0.303-2.654,1.729-2.77,2.544l-0.01,0.044
			c0,0-1.021,4.654-1.557,7.089c-2.913,13.158-6.214,28.075,0.486,41.189c3.346,6.542,8.943,11.032,15.763,12.621
			c7.092,1.648,14.699,0.025,21.07-4.406c-3.773,25.173-7.35,48.863-7.35,48.863s1.061,4.627,2.208,8.393l5.355,0.681
			c2.051-3.355,4.238-7.569,4.238-7.569s5.015-33.802,9.572-64.685c1.764-2.346,3.454-4.731,5.115-7.097
			c3.167-4.514,6.163-8.777,9.569-12.507c4.961-5.436,13.115-8.306,20.279-7.099c3.794,0.631,8.888,2.694,11.6,8.938
			c2.436,5.593,2.057,13.057-1.03,20.464c-3.306,7.935-9.226,14.533-15.083,16.817c-4.165,1.619-8.4,1.343-11.054-0.725
			c-2.57-2.004-3.843-5.897-3.732-11.108c0.308-2.048,0.804-5.342,1.572-10.654c0.303-2.07-4.18-0.787-5.094-0.54
			c-1.632,0.451-3.241,1.066-4.734,1.879c-0.556,0.305-2.384,1.226-2.499,2.039c-0.121,0.838-1.856,13.448-2.997,22.366
			c-0.545,4.254,5.335,5.191,8.979,3.933c0.459,0.439,0.923,0.864,1.384,1.225c3.592,2.798,8.072,4.234,12.843,4.234
			c3.111,0,6.346-0.612,9.533-1.855c8.787-3.415,17.051-12.288,21.578-23.151C233.105,274.185,233.443,263.695,229.709,255.1"/>
		<path fill="#2C3E50" d="M153.354,349.056c0.769,2.527,1.571,4.668,2.119,4.738c0.544,0.069,3.237-4.057,3.237-4.057
			C156.033,347.901,153.354,349.056,153.354,349.056"/>
	</g>
	<path clip-path="url(#SVGID_2_)" fill="#2C3E50" d="M426.151,367.033h-25.52v-16.404h-0.455
		c-3.189,5.925-7.94,10.671-14.242,14.242c-6.306,3.566-12.723,5.352-19.255,5.352c-15.495,0-26.699-3.832-33.607-11.506
		c-6.916-7.671-10.369-19.256-10.369-34.75v-74.738h25.975v72.231c0,10.331,1.974,17.625,5.925,21.876
		c3.947,4.254,9.492,6.38,16.634,6.38c5.471,0,10.025-0.832,13.673-2.507c3.645-1.671,6.606-3.906,8.887-6.72
		c2.276-2.809,3.907-6.188,4.897-10.144c0.986-3.946,1.482-8.202,1.482-12.759v-68.358h25.975V367.033z"/>
	<path clip-path="url(#SVGID_2_)" fill="#2C3E50" d="M445.75,204.34h25.974v60.155h0.455c1.826-2.883,4.025-5.468,6.609-7.748
		c2.58-2.278,5.43-4.213,8.545-5.811c3.113-1.593,6.38-2.809,9.799-3.645c3.416-0.831,6.794-1.253,10.139-1.253
		c9.264,0,17.352,1.634,24.267,4.897c6.908,3.268,12.646,7.748,17.203,13.444c4.558,5.695,7.976,12.346,10.254,19.938
		c2.28,7.601,3.419,15.726,3.419,24.382c0,7.902-1.027,15.573-3.076,23.014c-2.051,7.444-5.167,14.014-9.344,19.714
		c-4.181,5.695-9.455,10.253-15.835,13.668c-6.38,3.419-13.902,5.127-22.559,5.127c-3.952,0-7.94-0.266-11.962-0.794
		c-4.029-0.536-7.862-1.561-11.506-3.079c-3.649-1.517-6.953-3.493-9.915-5.921c-2.96-2.43-5.433-5.619-7.404-9.574h-0.458v16.179
		H445.75V204.34z M536.437,308.246c0-5.315-0.684-10.483-2.051-15.496c-1.364-5.012-3.417-9.456-6.151-13.328
		c-2.736-3.874-6.151-6.987-10.253-9.346c-4.103-2.35-8.812-3.529-14.128-3.529c-10.938,0-19.181,3.8-24.722,11.392
		c-5.548,7.6-8.317,17.699-8.317,30.308c0,5.925,0.717,11.433,2.163,16.52c1.441,5.092,3.607,9.455,6.493,13.104
		c2.884,3.645,6.344,6.531,10.37,8.656c4.021,2.13,8.693,3.19,14.013,3.19c5.925,0,10.938-1.213,15.041-3.646
		c4.1-2.428,7.478-5.581,10.139-9.455c2.655-3.873,4.558-8.28,5.697-13.218C535.867,318.463,536.437,313.41,536.437,308.246"/>
	<path clip-path="url(#SVGID_2_)" fill="#2C3E50" d="M596.134,314.854c0,4.554,0.643,8.964,1.937,13.216
		c1.29,4.253,3.227,7.977,5.81,11.166c2.581,3.189,5.848,5.733,9.799,7.633c3.948,1.9,8.657,2.847,14.128,2.847
		c7.592,0,13.705-1.631,18.341-4.898c4.631-3.263,8.088-8.164,10.368-14.696h24.61c-1.367,6.38-3.726,12.076-7.063,17.088
		c-3.345,5.012-7.37,9.23-12.079,12.646c-4.709,3.419-9.988,6.003-15.836,7.748c-5.848,1.744-11.961,2.621-18.341,2.621
		c-9.271,0-17.474-1.52-24.611-4.559c-7.142-3.034-13.181-7.289-18.116-12.76c-4.938-5.467-8.657-11.998-11.163-19.595
		c-2.506-7.596-3.759-15.949-3.759-25.064c0-8.354,1.328-16.294,3.985-23.812c2.658-7.519,6.458-14.127,11.396-19.823
		c4.935-5.697,10.896-10.217,17.887-13.559c6.987-3.337,14.886-5.012,23.698-5.012c9.263,0,17.58,1.937,24.95,5.81
		c7.368,3.874,13.481,9.001,18.342,15.381c4.861,6.38,8.395,13.71,10.598,21.99c2.199,8.28,2.769,16.825,1.708,25.634H596.134z
		 M656.747,297.763c-0.307-4.1-1.18-8.051-2.621-11.847c-1.445-3.797-3.419-7.101-5.925-9.914c-2.506-2.809-5.548-5.086-9.115-6.834
		c-3.571-1.745-7.559-2.621-11.961-2.621c-4.557,0-8.698,0.799-12.419,2.391c-3.723,1.598-6.913,3.8-9.57,6.609
		c-2.658,2.813-4.783,6.118-6.38,9.91c-1.597,3.8-2.469,7.902-2.62,12.306H656.747z"/>
	<path clip-path="url(#SVGID_2_)" fill="#2C3E50" d="M694.118,249.229h24.381v22.785h0.455c0.758-3.19,2.24-6.299,4.443-9.341
		c2.199-3.039,4.861-5.811,7.976-8.317c3.109-2.506,6.569-4.517,10.365-6.04c3.796-1.516,7.67-2.277,11.622-2.277
		c3.039,0,5.127,0.078,6.269,0.229c1.139,0.151,2.315,0.302,3.531,0.455v25.065c-1.822-0.304-3.686-0.568-5.582-0.798
		c-1.903-0.229-3.759-0.344-5.585-0.344c-4.407,0-8.542,0.875-12.417,2.619c-3.874,1.75-7.256,4.334-10.139,7.749
		c-2.891,3.419-5.168,7.633-6.838,12.648c-1.671,5.013-2.507,10.787-2.507,17.317v56.053h-25.974V249.229z"/>
	<path clip-path="url(#SVGID_2_)" fill="#2C3E50" d="M783.892,276.801h0.683c0.909-2.884,2.429-6.073,4.559-9.57
		c2.125-3.493,4.935-6.724,8.428-9.685c3.492-2.96,7.71-5.43,12.648-7.407c4.935-1.97,10.593-2.961,16.974-2.961
		c8.964,0,16.749,1.674,23.357,5.012c6.609,3.345,12.076,7.825,16.404,13.444c4.333,5.622,7.556,12.157,9.686,19.598
		c2.125,7.445,3.189,15.267,3.189,23.469c0,8.968-1.068,17.171-3.197,24.61c-2.133,7.445-5.367,13.865-9.706,19.255
		c-4.343,5.393-9.826,9.606-16.446,12.646c-6.623,3.039-14.426,4.557-23.409,4.557c-9.751,0-18.43-2.128-26.04-6.38
		c-7.615-4.25-13.171-11.167-16.675-20.736h-0.447l-0.007,66.311h-8.432V249.914h8.432V276.801z M827.07,362.25
		c7.613,0,14.201-1.441,19.761-4.332c5.559-2.883,10.127-6.758,13.709-11.617c3.578-4.862,6.243-10.521,7.996-16.979
		c1.751-6.454,2.628-13.329,2.628-20.622c0-6.683-0.843-13.251-2.514-19.709c-1.679-6.454-4.266-12.228-7.77-17.317
		c-3.505-5.091-8.033-9.19-13.592-12.306c-5.564-3.112-12.299-4.673-20.219-4.673c-7.767,0-14.395,1.524-19.876,4.559
		c-5.482,3.042-9.94,7.063-13.367,12.075c-3.43,5.017-5.902,10.75-7.426,17.207c-1.522,6.459-2.284,13.178-2.284,20.164
		c0,6.99,0.685,13.71,2.056,20.168c1.371,6.457,3.692,12.153,6.967,17.088c3.275,4.939,7.692,8.887,13.251,11.852
		C811.955,360.768,818.845,362.25,827.07,362.25"/>
	<path clip-path="url(#SVGID_2_)" fill="#2C3E50" d="M983.73,367.033h-8.661v-25.065h-0.454c-1.523,4.41-3.686,8.316-6.496,11.737
		c-2.812,3.418-6.075,6.343-9.798,8.77c-3.723,2.433-7.784,4.256-12.19,5.473c-4.407,1.211-8.887,1.82-13.444,1.82
		c-6.835,0-12.646-0.835-17.432-2.505c-4.783-1.671-8.698-3.875-11.733-6.609c-3.041-2.735-5.434-5.811-7.179-9.226
		c-1.748-3.42-3-6.872-3.758-10.369c-0.766-3.493-1.22-6.871-1.369-10.14c-0.153-3.268-0.229-6.113-0.229-8.546v-72.46h8.661v74.054
		c0,3.042,0.226,6.725,0.684,11.052c0.455,4.329,1.781,8.51,3.984,12.534c2.203,4.025,5.504,7.482,9.914,10.365
		c4.402,2.891,10.631,4.332,18.686,4.332c6.526,0,12.416-1.217,17.657-3.647c5.241-2.43,9.685-5.812,13.329-10.14
		c3.649-4.33,6.416-9.493,8.316-15.495c1.9-6,2.851-12.568,2.851-19.71v-63.345h8.661V367.033z"/>
	<path clip-path="url(#SVGID_2_)" fill="#2C3E50" d="M1002.186,204.34h8.433v70.409h0.454c1.674-4.558,4.032-8.547,7.082-11.961
		c3.043-3.419,6.547-6.302,10.506-8.661c3.958-2.351,8.22-4.1,12.789-5.242c4.568-1.138,9.289-1.708,14.164-1.708
		c8.68,0,16.177,1.519,22.496,4.557c6.318,3.042,11.607,7.216,15.873,12.531c4.265,5.319,7.422,11.511,9.481,18.571
		c2.055,7.064,3.082,14.7,3.082,22.902c0,13.976-1.903,25.18-5.71,33.608c-3.808,8.431-8.377,14.892-13.704,19.369
		c-5.328,4.483-10.889,7.443-16.673,8.885c-5.79,1.442-10.739,2.166-14.846,2.166c-7.77,0-14.356-1.215-19.761-3.644
		s-9.858-5.278-13.361-8.546c-3.505-3.265-6.166-6.495-7.992-9.685c-1.83-3.19-2.973-5.545-3.427-7.064h-0.447v26.204h-8.439V204.34
		z M1055.625,362.25c7.762,0,14.312-1.671,19.646-5.013c5.326-3.341,9.672-7.71,13.023-13.104
		c3.349-5.389,5.784-11.469,7.308-18.229c1.526-6.757,2.288-13.478,2.288-20.164c0-6.53-0.876-12.837-2.629-18.914
		c-1.752-6.073-4.417-11.508-7.994-16.29c-3.583-4.787-8-8.62-13.253-11.507c-5.256-2.887-11.385-4.333-18.389-4.333
		c-7.619,0-14.242,1.294-19.88,3.875c-5.637,2.587-10.282,6.154-13.936,10.712c-3.655,4.557-6.397,9.951-8.225,16.175
		c-1.828,6.232-2.741,12.989-2.741,20.282c0,7.142,0.838,14.128,2.513,20.962c1.675,6.835,4.303,12.876,7.885,18.116
		c3.577,5.241,8.185,9.455,13.82,12.646C1040.695,360.653,1047.549,362.25,1055.625,362.25"/>
	<rect x="1119.762" y="204.34" clip-path="url(#SVGID_2_)" fill="#2C3E50" width="8.656" height="162.693"/>
	<path clip-path="url(#SVGID_2_)" fill="#2C3E50" d="M1148.929,204.34h8.658v23.468h-8.658V204.34z M1148.929,249.914h8.658v117.12
		h-8.658V249.914z"/>
	<path clip-path="url(#SVGID_2_)" fill="#2C3E50" d="M1180.146,328.069c0.304,5.468,1.515,10.294,3.644,14.468
		c2.126,4.181,4.898,7.747,8.317,10.712c3.42,2.961,7.408,5.204,11.962,6.721c4.557,1.522,9.492,2.28,14.811,2.28
		c3.797,0,7.862-0.344,12.19-1.028c4.333-0.683,8.355-1.937,12.08-3.759c3.719-1.821,6.795-4.365,9.227-7.633
		c2.429-3.265,3.646-7.404,3.646-12.42c0-6.527-1.975-11.467-5.922-14.808c-3.952-3.342-8.927-5.925-14.927-7.747
		c-6.002-1.827-12.456-3.305-19.368-4.443c-6.913-1.144-13.369-2.851-19.369-5.127c-6.003-2.281-10.976-5.508-14.923-9.686
		c-3.955-4.176-5.925-10.289-5.925-18.345c0-5.77,1.285-10.594,3.873-14.468c2.58-3.874,5.885-6.949,9.91-9.229
		c4.025-2.277,8.547-3.907,13.559-4.898c5.014-0.987,10.029-1.482,15.041-1.482c6.073,0,11.769,0.684,17.088,2.051
		c5.315,1.368,9.913,3.571,13.788,6.609c3.873,3.038,6.908,6.913,9.111,11.618c2.203,4.713,3.305,10.408,3.305,17.093h-8.657
		c0-5.315-0.877-9.874-2.621-13.674c-1.747-3.796-4.181-6.871-7.293-9.226c-3.116-2.354-6.797-4.104-11.052-5.242
		c-4.254-1.142-8.809-1.71-13.669-1.71c-3.952,0-7.94,0.38-11.966,1.142c-4.024,0.761-7.633,2.048-10.822,3.874
		c-3.19,1.822-5.812,4.176-7.858,7.064c-2.052,2.886-3.08,6.379-3.08,10.479c0,4.713,1.143,8.509,3.42,11.393
		c2.276,2.891,5.274,5.208,9,6.952c3.723,1.749,7.896,3.153,12.531,4.214c4.635,1.065,9.303,2.13,14.017,3.19
		c5.771,1.065,11.2,2.317,16.289,3.76c5.091,1.444,9.493,3.42,13.219,5.925c3.72,2.506,6.643,5.737,8.772,9.685
		c2.126,3.952,3.189,8.964,3.189,15.037c0,6.38-1.444,11.622-4.328,15.725c-2.887,4.103-6.535,7.404-10.938,9.91
		c-4.409,2.511-9.308,4.254-14.697,5.241c-5.396,0.987-10.675,1.481-15.84,1.481c-6.686,0-12.874-0.875-18.57-2.619
		c-5.695-1.746-10.671-4.403-14.922-7.974c-4.255-3.571-7.6-7.937-10.028-13.104c-2.433-5.163-3.722-11.167-3.874-18.001H1180.146z"
		/>
	<path clip-path="url(#SVGID_2_)" fill="#2C3E50" d="M1285.189,204.34v70.637h0.454c1.516-4.406,3.682-8.316,6.495-11.736
		c2.809-3.418,6.073-6.339,9.799-8.771c3.719-2.429,7.781-4.251,12.19-5.471c4.403-1.212,8.886-1.822,13.444-1.822
		c6.835,0,12.646,0.835,17.428,2.506c4.787,1.675,8.699,3.874,11.737,6.609c3.038,2.735,5.429,5.811,7.178,9.227
		c1.745,3.419,2.998,6.875,3.759,10.367c0.758,3.497,1.213,6.876,1.368,10.144c0.147,3.268,0.229,6.114,0.229,8.542v72.461h-8.66
		v-74.054c0-2.887-0.229-6.531-0.684-10.938c-0.455-4.406-1.785-8.62-3.988-12.648c-2.203-4.022-5.544-7.479-10.025-10.366
		c-4.483-2.886-10.675-4.331-18.57-4.331c-6.686,0-12.611,1.219-17.771,3.647c-5.168,2.433-9.569,5.811-13.219,10.14
		c-3.645,4.328-6.417,9.494-8.316,15.494c-1.9,6.003-2.847,12.572-2.847,19.709v63.346h-8.661V204.34H1285.189z"/>
	<path clip-path="url(#SVGID_2_)" fill="#2C3E50" d="M1388.865,309.613v1.367c0,6.835,0.913,13.365,2.743,19.595
		c1.826,6.232,4.528,11.7,8.109,16.408c3.579,4.71,8.073,8.429,13.481,11.164c5.404,2.735,11.688,4.103,18.849,4.103
		c11.728,0,21.021-3.075,27.874-9.229c6.854-6.152,11.573-14.697,14.164-25.635h8.662c-2.585,13.673-8.17,24.152-16.75,31.445
		c-8.583,7.293-19.938,10.937-34.066,10.937c-8.655,0-16.216-1.56-22.673-4.672c-6.458-3.112-11.848-7.366-16.175-12.76
		c-4.333-5.39-7.561-11.769-9.685-19.14c-2.13-7.367-3.19-15.303-3.19-23.812c0-8.203,1.098-16.064,3.301-23.583
		c2.203-7.52,5.507-14.128,9.913-19.825c4.406-5.695,9.914-10.253,16.52-13.672c6.61-3.419,14.395-5.127,23.357-5.127
		c8.202,0,15.455,1.52,21.761,4.557c6.303,3.043,11.581,7.179,15.836,12.42c4.251,5.239,7.481,11.319,9.684,18.226
		c2.199,6.918,3.305,14.321,3.305,22.22c0,0.763-0.04,1.635-0.113,2.617c-0.078,0.99-0.115,1.789-0.115,2.396H1388.865z
		 M1475,302.091c-0.308-6.38-1.373-12.417-3.199-18.112c-1.829-5.696-4.531-10.713-8.109-15.04
		c-3.581-4.329-7.92-7.781-13.026-10.369c-5.104-2.58-10.93-3.873-17.477-3.873c-7.008,0-13.177,1.334-18.508,3.988
		c-5.334,2.662-9.824,6.155-13.477,10.483c-3.659,4.328-6.473,9.381-8.454,15.15c-1.98,5.774-3.2,11.699-3.655,17.772H1475z"/>
	<path clip-path="url(#SVGID_2_)" fill="#2C3E50" d="M1503.48,275.888h0.684c1.061-3.793,2.997-7.367,5.808-10.708
		c2.809-3.339,6.228-6.229,10.257-8.657c4.021-2.429,8.506-4.292,13.443-5.586c4.935-1.286,10.062-1.859,15.381-1.708v8.657
		c-4.559-0.603-9.766-0.148-15.609,1.368c-5.852,1.523-11.434,4.864-16.749,10.028c-2.13,2.276-3.987,4.479-5.582,6.605
		c-1.597,2.129-2.928,4.483-3.987,7.063c-1.064,2.587-1.9,5.471-2.508,8.66c-0.609,3.191-0.989,6.991-1.137,11.393v64.029h-8.661
		v-117.12h8.661V275.888z"/>
</g>
</svg>
